<svg height="496pt" viewBox="0 0 496 496" width="496pt" xmlns="http://www.w3.org/2000/svg" xmlns:xlink="http://www.w3.org/1999/xlink"><linearGradient id="a" gradientTransform="matrix(8 0 0 -8 -8 504)" gradientUnits="userSpaceOnUse" x1="32" x2="32" y1="1" y2="63"><stop offset="0" stop-color="#9f2fff"/><stop offset="1" stop-color="#0bb1d3"/></linearGradient><path d="m427.3125 104c-10.328125-10.3125-28.296875-10.3125-38.625 0l-5.113281 5.113281c-1.863281 1.863281-4.34375 2.886719-6.980469 2.886719h-1.1875c-2.636719 0-5.117188-1.023438-6.980469-2.894531l-5.523437-5.511719c-1.863282-1.875-2.894532-4.355469-2.894532-6.992188 0-3.015624 1.351563-5.832031 3.710938-7.714843l4.59375-3.671875c4.886719-3.910156 7.695312-9.75 7.695312-16.015625 0-5.398438-2.183593-10.6875-6.007812-14.503907l-14.6875-14.695312c-10.328125-10.3125-28.296875-10.320312-38.625 0l-10.847656 10.855469c-6.34375 6.328125-9.839844 14.761719-9.839844 23.90625 0 4.558593.910156 9.007812 2.710938 13.214843 14.945312 34.863282 42.265624 62.550782 76.921874 77.953126l16.167969 7.175781c4.3125 1.917969 8.894531 2.894531 13.625 2.894531 8.949219 0 17.375-3.488281 23.71875-9.824219l10.855469-10.855469c5.160156-5.160156 8-12.015624 8-19.320312s-2.839844-14.160156-8-19.3125zm1.375 40-10.847656 10.855469c-5.085938 5.066406-12.992188 6.550781-19.535156 3.625l-16.167969-7.183594c-30.960938-13.761719-55.367188-38.488281-68.710938-69.625-.945312-2.199219-1.425781-4.527344-1.425781-7.097656 0-4.6875 1.832031-9.085938 5.144531-12.398438l10.855469-10.855469c2.144531-2.144531 4.976562-3.320312 8-3.320312s5.855469 1.175781 8 3.3125l14.679688 14.679688c.832031.839843 1.320312 2.007812 1.320312 3.191406 0 1.375-.617188 2.664062-1.695312 3.527344l-4.585938 3.671874c-6.175781 4.9375-9.71875 12.304688-9.71875 20.210938 0 6.910156 2.6875 13.40625 7.574219 18.300781l5.523437 5.511719c4.886719 4.890625 11.390625 7.585938 18.300782 7.585938h1.1875c6.910156 0 13.414062-2.695313 18.292968-7.578126l5.121094-5.09375c4.28125-4.28125 11.71875-4.28125 16 0l12.6875 12.679688c2.144531 2.136719 3.3125 4.976562 3.3125 8s-1.167969 5.863281-3.3125 8zm-324.6875 153.886719v44.21875l21 5.742187c.6875 1.832032 1.457031 3.664063 2.289062 5.480469l-10.808593 18.917969 31.261719 31.265625 18.921874-10.808594c1.816407.832031 3.640626 1.601563 5.480469 2.289063l5.742188 21.007812h44.21875l5.742187-21c1.832032-.6875 3.664063-1.457031 5.480469-2.289062l18.917969 10.808593 31.265625-31.261719-10.808594-18.921874c.832031-1.816407 1.601563-3.640626 2.289063-5.480469l21.007812-5.742188v-44.21875l-21-5.742187c-.6875-1.832032-1.457031-3.664063-2.289062-5.480469l10.808593-18.917969-31.261719-31.265625-18.929687 10.800781c-1.808594-.832031-3.632813-1.601562-5.472656-2.289062l-5.742188-21h-44.21875l-5.742187 21c-1.832032.6875-3.664063 1.449219-5.472656 2.289062l-18.925782-10.800781-31.265625 31.265625 10.808594 18.917969c-.832031 1.816406-1.601563 3.640625-2.289063 5.480469zm32.441406-27.460938 13.984375-13.984375 15.832031 9.03125 3.886719-2.058594c3.589844-1.894531 7.28125-3.4375 10.960938-4.574218l4.191406-1.289063 4.816406-17.550781h19.78125l4.808594 17.542969 4.191406 1.289062c3.679688 1.144531 7.371094 2.679688 10.960938 4.574219l3.886719 2.058594 15.832031-9.03125 13.984375 13.980468-9.039063 15.84375 2.066407 3.878907c1.894531 3.574219 3.4375 7.261719 4.574218 10.960937l1.289063 4.191406 17.550781 4.824219v19.78125l-17.542969 4.808594-1.289062 4.191406c-1.144531 3.699219-2.679688 7.386719-4.574219 10.960938l-2.066406 3.878906 9.039062 15.839844-13.980468 13.984375-15.84375-9.039063-3.878907 2.066407c-3.574219 1.894531-7.261719 3.4375-10.960937 4.574218l-4.191406 1.289063-4.824219 17.550781h-19.78125l-4.808594-17.542969-4.191406-1.289062c-3.699219-1.144531-7.386719-2.679688-10.960938-4.574219l-3.878906-2.066406-15.839844 9.039062-13.984375-13.980468 9.039063-15.84375-2.066407-3.878907c-1.894531-3.574219-3.4375-7.261719-4.574218-10.960937l-1.289063-4.191406-17.550781-4.824219v-19.78125l17.542969-4.808594 1.289062-4.191406c1.144531-3.699219 2.679688-7.386719 4.574219-10.960938l2.066406-3.878906zm63.558594 97.574219c26.472656 0 48-21.527344 48-48s-21.527344-48-48-48-48 21.527344-48 48 21.527344 48 48 48zm0-80c17.648438 0 32 14.351562 32 32s-14.351562 32-32 32-32-14.351562-32-32 14.351562-32 32-32zm272-288h-208c-13.230469 0-24 10.769531-24 24v64h-88c-11.121094 0-20.40625 7.632812-23.121094 17.910156-49.96875 26.503906-80.878906 77.457032-80.878906 134.089844v40.640625c-27.089844 3.902344-48 27.207031-48 55.359375v32c0 30.871094 25.128906 56 56 56h40v-144h-32v-40c0-48.542969 25.367188-92.480469 66.832031-116.9375 4.015625 7.648438 11.945313 12.9375 21.167969 12.9375h88v48c0 13.230469 10.769531 24 24 24h68.121094c2.527344 10.425781 3.878906 21.152344 3.878906 32v40h-32v144h15.191406c-3.71875 18.230469-19.871094 32-39.191406 32h-41.136719c-3.574219-13.769531-15.992187-24-30.863281-24h-32c-17.648438 0-32 14.351562-32 32s14.351562 32 32 32h32c14.871094 0 27.289062-10.230469 30.863281-24h41.136719c28.152344 0 51.457031-20.910156 55.359375-48h8.640625c30.871094 0 56-25.128906 56-56v-32c0-28.152344-20.910156-51.457031-48-55.359375v-40.640625c0-10.816406-1.144531-21.535156-3.390625-32h19.390625v46.433594l74.296875-46.433594h29.703125c13.230469 0 24-10.769531 24-24v-160c0-13.230469-10.769531-24-24-24zm-392 408h-16v-96h-16v95.191406c-18.230469-3.71875-32-19.871094-32-39.191406v-32c0-22.054688 17.945312-40 40-40h24zm128 72h-32c-8.824219 0-16-7.175781-16-16s7.175781-16 16-16h32c8.824219 0 16 7.175781 16 16s-7.175781 16-16 16zm176-144v32c0 19.3125-13.769531 35.472656-32 39.191406v-95.191406h-16v96h-16v-112h24c22.054688 0 40 17.945312 40 40zm-192-232v16h-16v-16zm-48 8c0-4.40625 3.585938-8 8-8h8v16h-8c-4.414062 0-8-3.59375-8-8zm64 8v-16h32v16zm272 64c0 4.40625-3.585938 8-8 8h-34.296875l-53.703125 33.566406v-33.566406h-120c-4.414062 0-8-3.59375-8-8v-160c0-4.40625 3.585938-8 8-8h208c4.414062 0 8 3.59375 8 8zm0 0" fill="url(#a)"/></svg>