<svg id="Layer_1" height="512" viewBox="0 0 512 512" width="512" xmlns="http://www.w3.org/2000/svg" xmlns:xlink="http://www.w3.org/1999/xlink" data-name="Layer 1"><linearGradient id="linear-gradient" gradientUnits="userSpaceOnUse" x1="146.86" x2="146.86" y1="464" y2="50.909"><stop offset=".322" stop-color="#a163f5"/><stop offset=".466" stop-color="#b074ee"/><stop offset=".752" stop-color="#d8a1dd"/><stop offset=".898" stop-color="#efbad3"/></linearGradient><linearGradient id="linear-gradient-2" x1="169.011" x2="169.011" xlink:href="#linear-gradient" y1="464" y2="50.909"/><linearGradient id="linear-gradient-3" x1="255.965" x2="255.965" xlink:href="#linear-gradient" y1="464" y2="50.909"/><path d="m155.18 317.9a6 6 0 0 0 5.129-9.1 108.865 108.865 0 0 1 -2.139-109.163 6 6 0 1 0 -10.5-5.809 120.861 120.861 0 0 0 2.371 121.181 5.994 5.994 0 0 0 5.139 2.891z" fill="url(#linear-gradient)"/><path d="m161.362 183.364a6 6 0 0 0 8.448-.8c2.28-2.759 4.725-5.443 7.265-7.979a6 6 0 0 0 -8.477-8.494c-2.81 2.806-5.515 5.775-8.037 8.828a6 6 0 0 0 .801 8.445z" fill="url(#linear-gradient-2)"/><path d="m258.029 15.02-42.529.98a6 6 0 0 0 -5.906 4.939l-8.748 48.694c-11.887 3.359-24.246 7.267-36.012 13.317l-42.557-30.475a6 6 0 0 0 -7.7.6l-59.4 58.338a6 6 0 0 0 -.667 7.783l30.032 41.764c-5.8 10.4-11.889 22.4-16.02 35.431l-52.5 8.606a6 6 0 0 0 -5.022 5.918v83.031a6 6 0 0 0 5.02 5.919l52.492 8.693a191.909 191.909 0 0 0 15.475 35.542l-29.787 41.973a6 6 0 0 0 .68 7.745l59.543 58.712a6 6 0 0 0 7.648.646l42.6-29.755c10.9 5.989 23.211 12.3 36.087 16.342l8.826 52.237a6 6 0 0 0 5.916 5h42.5v-.14h.029a242.323 242.323 0 0 0 171.739-70.547 239.53 239.53 0 0 0 0-340.749 242.317 242.317 0 0 0 -171.739-70.544zm-6.029 307.242c-36.688-2.55-65.914-32.885-65.914-69.831s29.226-67.282 65.914-69.831zm0-216.549c-70.157 2.363-129.156 54.218-141.2 121.219a5.989 5.989 0 1 0 11.793 2.1c10.936-61.956 64.626-109 129.411-111.315v52.856c-42.771 2.6-77.914 38.316-77.914 81.858s35.139 79.252 77.91 81.857v52.855c-66.957-2.411-122.062-53.007-130.365-117.868a6.006 6.006 0 0 0 -5.943-5.275h-.02a6.006 6.006 0 0 0 -5.94 6.8c9.111 71.075 69.725 125.928 142.268 128.348v85.852h-31.429l-8.606-50.927a6 6 0 0 0 -4.315-4.782c-14.259-3.949-28.347-11.452-40.433-18.175a6 6 0 0 0 -6.352.325l-41.565 29.038-52.358-51.623 29.026-40.9a6 6 0 0 0 .321-6.442c-8.058-14.154-13.724-27.2-17.322-39.9a6 6 0 0 0 -4.792-4.283l-51.175-8.473v-72.846l51.165-8.388a6 6 0 0 0 4.8-4.285c4.157-14.668 11.383-28.353 17.9-39.805a6 6 0 0 0 -.343-6.472l-29.266-40.7 52.128-51.2 41.49 29.711a6 6 0 0 0 6.41.365c12.8-7.12 26.975-11.345 40.4-15.062a6 6 0 0 0 4.3-4.721l8.534-47.455h31.482zm169.332-11.627q1.913 1.9 3.771 3.832a226.289 226.289 0 0 1 -47.914 38.534c-18.4-45.245-47.758-82.187-86.028-107.108a229.862 229.862 0 0 1 130.171 64.742zm-157.332-66.386c47 23.006 82.026 63.23 102.61 114.712-4.365 2.316-8.823 4.514-13.362 6.56a230.44 230.44 0 0 1 -89.248 20.212zm0 153.482a241.322 241.322 0 0 0 94.193-21.269q6.437-2.9 12.658-6.13c10.122 29.134 15.759 61.217 16.34 96.217h-123.191zm0 80.818h123.191c-.581 35-6.218 67.024-16.34 96.156-4.143-2.163-8.366-4.255-12.656-6.188a241.283 241.283 0 0 0 -94.195-21.268zm0 80.7a230.445 230.445 0 0 1 89.249 20.21c4.539 2.045 9 4.243 13.361 6.559-20.584 51.48-55.61 91.705-102.61 114.71zm157.332 75.1a229.856 229.856 0 0 1 -130.17 64.742c38.269-24.92 67.632-61.863 86.027-107.108a226.32 226.32 0 0 1 47.911 38.529q-1.858 1.937-3.768 3.837zm11.893-12.661a238.192 238.192 0 0 0 -51.7-41.067c10.98-30.89 17.075-65.072 17.669-102.072h89.663a226.166 226.166 0 0 1 -55.632 143.134zm0-298.3a226.246 226.246 0 0 1 55.632 143.161h-89.663c-.6-37-6.689-71.242-17.672-102.127a238.026 238.026 0 0 0 51.703-41.037z" fill="url(#linear-gradient-3)"/></svg>